<?xml version="1.0" standalone="no"?><!DOCTYPE svg PUBLIC "-//W3C//DTD SVG 1.1//EN" "http://www.w3.org/Graphics/SVG/1.1/DTD/svg11.dtd"><svg t="1622516834304" class="icon" viewBox="0 0 1339 1024" version="1.1" xmlns="http://www.w3.org/2000/svg" p-id="2493" xmlns:xlink="http://www.w3.org/1999/xlink" width="261.5234375" height="200"><defs><style type="text/css"></style></defs><path d="M1069.292308 543.507692c16.620308 0 30.483692 2.756923 44.425846 5.513846-2.835692 5.513846-2.835692 11.106462-2.835692 16.699077 0 22.212923 19.456 41.590154 41.747692 41.590154a39.227077 39.227077 0 0 0 38.833231-27.726769c30.483692 19.456 55.453538 44.425846 72.152615 72.152615a41.747692 41.747692 0 0 0-27.805538 38.912c0 22.212923 19.456 41.590154 41.668923 41.590154 8.349538 0 13.863385 0 16.699077-2.756923 2.756923 16.699077 5.513846 30.562462 5.513846 44.425846 0 16.620308-2.756923 30.562462-5.513846 44.425846-5.592615-2.756923-11.106462-2.756923-16.699077-2.756923a42.692923 42.692923 0 0 0-41.668923 41.590154c0 19.456 11.106462 33.319385 27.805538 38.912a224.019692 224.019692 0 0 1-72.152615 72.152616c-8.349538-22.212923-38.912-38.833231-63.881847-19.456-11.106462 11.106462-19.456 24.969846-16.699076 38.912 0 2.756923 2.835692 5.513846 2.835692 11.027692-16.699077 2.835692-30.562462 5.592615-44.425846 5.592615-16.699077 0-30.562462-2.756923-44.425846-5.513846 2.756923-5.513846 2.756923-11.106462 2.756923-16.699077a42.692923 42.692923 0 0 0-41.590154-41.590154 39.227077 39.227077 0 0 0-38.912 27.72677 224.019692 224.019692 0 0 1-72.152616-72.152616c22.212923-8.349538 38.833231-38.912 19.456-63.803077-11.106462-11.185231-25.048615-19.534769-38.912-16.699077-2.756923 0-5.513846 2.756923-11.027692 2.756923-2.835692-16.699077-5.592615-30.562462-5.592615-44.425846 0-16.620308 2.756923-30.562462 5.513846-44.425846 5.513846 2.756923 11.106462 2.756923 16.699077 2.756923a42.692923 42.692923 0 0 0 41.590154-41.590154 39.227077 39.227077 0 0 0-27.72677-38.912c19.456-30.483692 44.425846-55.532308 72.152616-72.152615 8.349538 22.212923 38.912 38.833231 63.803077 19.456 11.185231-11.106462 19.456-24.969846 16.699077-38.912 0-2.756923-2.756923-5.513846-2.756923-11.027692 16.620308-2.835692 30.562462-5.592615 44.425846-5.592616z m38.83323-541.302154c33.319385 0 58.289231 24.969846 58.289231 58.289231V501.76a268.130462 268.130462 0 0 0-124.928-30.483692c-155.411692 0-280.339692 133.198769-280.339692 294.203077 0 30.562462 2.756923 61.124923 11.027692 88.851692L652.996923 979.337846a70.340923 70.340923 0 0 1-100.036923 0l-119.335385-124.928H125.400615C78.217846 854.409846 39.384615 815.576615 39.384615 768.315077V60.494769c0-33.319385 24.969846-58.289231 58.289231-58.289231zM944.443077 804.470154c11.027692 47.182769 47.261538 83.259077 94.365538 94.365538 91.608615 22.212923 174.867692-61.046154 152.733539-152.654769-11.106462-47.261538-47.261538-83.337846-94.444308-94.444308-91.608615-22.212923-174.867692 61.124923-152.654769 152.733539z m185.974154-8.349539a60.258462 60.258462 0 0 1-38.833231 38.833231 65.536 65.536 0 0 1-83.259077-83.259077 54.980923 54.980923 0 0 1 38.833231-38.833231 65.536 65.536 0 0 1 83.259077 83.259077zM580.686769 610.146462a65.536 65.536 0 0 0-44.425846 19.37723 60.888615 60.888615 0 0 0-19.377231 47.261539c0 19.377231 5.513846 36.076308 19.377231 47.182769 11.106462 13.863385 27.805538 19.377231 44.425846 19.377231 19.456 0 33.319385-8.270769 47.261539-19.377231 11.027692-13.942154 19.377231-30.562462 19.37723-47.261538a66.953846 66.953846 0 0 0-19.456-47.18277 65.142154 65.142154 0 0 0-21.504-14.887384l-5.750153-1.890462-5.041231-0.393846a46.316308 46.316308 0 0 1-6.931692-1.575385l-0.630154-0.236307z m24.969846-388.647385c-55.453538 0-99.879385 16.620308-133.198769 47.182769-22.212923 19.456-36.076308 47.182769-44.425846 77.745231-8.349538 24.969846 13.863385 49.939692 41.668923 49.939692 19.377231 0 38.833231-13.863385 41.590154-33.319384 2.756923-16.620308 8.349538-27.726769 16.699077-38.833231 16.620308-22.212923 38.833231-30.562462 72.152615-30.562462 24.969846 0 47.261538 5.513846 61.046154 19.456 13.863385 13.863385 22.212923 33.319385 22.212923 58.289231 0 19.456-5.513846 36.076308-19.377231 52.775385l-8.349538 11.027692c-50.018462 44.425846-77.745231 74.988308-88.851692 94.444308a287.507692 287.507692 0 0 0-8.349539 33.319384 44.189538 44.189538 0 0 0 23.867077 45.292308l5.671385 2.284308h1.96923c2.993231 0.393846 5.750154 0.866462 8.507077 1.575384l2.12677 0.630154 2.363077 0.157539c19.692308 0 37.257846-13.154462 42.850461-29.696l1.575385-6.380308c0-11.106462 2.678154-19.456 5.513846-24.969846 8.270769-13.942154 16.620308-27.805538 30.483692-36.076308 36.076308-30.562462 58.289231-52.775385 63.803077-58.289231 16.699077-25.048615 27.805538-55.532308 27.805539-91.687384 0-44.425846-16.620308-80.502154-47.18277-105.472-30.562462-24.969846-72.152615-38.833231-122.092307-38.833231z" p-id="2494"></path></svg>