<?xml version="1.0" standalone="no"?><!DOCTYPE svg PUBLIC "-//W3C//DTD SVG 1.1//EN" "http://www.w3.org/Graphics/SVG/1.1/DTD/svg11.dtd"><svg t="1622516887119" class="icon" viewBox="0 0 1137 1024" version="1.1" xmlns="http://www.w3.org/2000/svg" p-id="3791" xmlns:xlink="http://www.w3.org/1999/xlink" width="222.0703125" height="200"><defs><style type="text/css"></style></defs><path d="M413.127111 480.995556h-12.401778c-40.96 0-74.353778-33.223111-74.353777-73.841778V394.808889c0-40.618667 33.393778-73.784889 74.353777-73.784889h12.401778c40.96 0 74.353778 33.166222 74.353778 73.784889v12.344889c0 40.618667-33.393778 73.841778-74.353778 73.841778z m269.482667 0h-12.401778c-40.96 0-74.353778-33.223111-74.353778-73.841778V394.808889c0-40.618667 33.393778-73.784889 74.353778-73.784889H682.666667c40.96 0 74.353778 33.166222 74.353777 73.784889v12.344889c0 40.618667-33.393778 73.841778-74.353777 73.841778zM799.004444 1024a54.613333 54.613333 0 0 1-45.795555-25.144889l-93.752889-150.357333C339.854222 897.763556 56.888889 688.526222 56.888889 428.032 56.888889 192.056889 286.492444 0 568.888889 0s512 192.056889 512 428.032c0 109.624889-49.607111 213.959111-139.605333 293.148444-14.506667 30.492444-57.116444 157.809778-90.510223 265.386667a54.727111 54.727111 0 0 1-44.771555 37.432889h-6.997334z m-113.208888-288.369778c18.375111 0 36.181333 9.102222 45.852444 25.144889l51.2 82.375111c58.197333-178.119111 70.599111-188.871111 81.351111-197.973333 70.087111-59.335111 108.373333-136.931556 108.373333-217.713778 0-177.095111-181.077333-321.024-404.195555-321.024-223.175111 0-404.252444 143.928889-404.252445 321.024 0 204.401778 243.086222 366.478222 509.838223 309.248a88.746667 88.746667 0 0 1 11.889777-1.080889z" p-id="3792"></path></svg>