<?xml version="1.0" standalone="no"?><!DOCTYPE svg PUBLIC "-//W3C//DTD SVG 1.1//EN" "http://www.w3.org/Graphics/SVG/1.1/DTD/svg11.dtd"><svg t="1622516966195" class="icon" viewBox="0 0 1024 1024" version="1.1" xmlns="http://www.w3.org/2000/svg" p-id="8091" xmlns:xlink="http://www.w3.org/1999/xlink" width="200" height="200"><defs><style type="text/css"></style></defs><path d="M791.253333 1022.549333c-9.301333 0-18.602667 0-27.904-9.301333l-223.402666-148.949333-111.744 111.701333c-9.301333 9.301333-37.205333 18.602667-46.506667 9.301333a51.2 51.2 0 0 1-27.946667-46.506666v-204.8c0-9.344 0-18.645333 9.301334-27.946667L716.8 324.352a45.013333 45.013333 0 0 1 65.152 0c18.645333 18.645333 18.645333 46.549333 0 65.194667l-344.405333 372.352v74.453333l65.152-55.850667c18.602667-18.602667 37.248-18.602667 55.850666-9.301333l204.8 130.346667L921.6 128.853333 139.648 510.549333l176.853333 111.701334c18.645333 9.301333 27.946667 46.549333 9.301334 65.152-9.301333 18.645333-46.506667 27.946667-65.152 18.645333l-242.048-158.293333C9.301333 538.453333 0 529.194667 0 510.592s9.301333-27.946667 27.946667-37.248L958.848 7.850667c18.602667-9.301333 37.205333-9.301333 46.506667 0C1024 17.152 1024 35.84 1024 54.4l-186.197333 930.901333c0 18.645333-9.301333 27.946667-27.904 37.248h-18.645334z" p-id="8092"></path></svg>