<?xml version="1.0" standalone="no"?><!DOCTYPE svg PUBLIC "-//W3C//DTD SVG 1.1//EN" "http://www.w3.org/Graphics/SVG/1.1/DTD/svg11.dtd"><svg t="1622516935088" class="icon" viewBox="0 0 1024 1024" version="1.1" xmlns="http://www.w3.org/2000/svg" p-id="7290" xmlns:xlink="http://www.w3.org/1999/xlink" width="200" height="200"><defs><style type="text/css"></style></defs><path d="M798.72 1000.96c-18.432-12.288-37.888-23.04-43.52-23.04s-20.48 8.192-32.768 17.92c-37.888 30.208-47.104 29.696-104.448-4.096-40.448-23.552-46.592-34.816-39.424-68.096 4.096-18.432 3.584-26.624-2.56-39.936-8.704-18.432-17.92-24.064-53.76-34.816-32.768-9.728-36.864-19.968-34.304-92.16 2.048-69.632 5.632-76.8 44.544-86.016 13.312-3.072 29.696-11.264 35.84-17.92 10.752-11.264 11.264-15.872 8.192-48.128-3.072-34.304-2.56-36.864 10.752-51.2 19.968-20.992 70.656-46.592 93.184-46.592 12.8 0 26.112 5.632 43.52 17.92 13.824 9.728 29.184 17.92 33.28 17.92 4.608 0 20.992-8.192 36.352-17.92s34.304-17.92 42.496-17.92c16.896 0 68.608 26.112 88.576 44.544 12.8 11.776 13.312 14.336 10.752 46.592-4.608 45.056 6.144 64.512 38.4 72.704 48.64 11.776 47.616 9.216 49.152 88.576 1.024 64.512 0.512 70.656-9.216 80.384-5.632 5.632-15.872 10.24-23.04 10.24-17.408 0-40.96 12.288-51.2 26.624-6.144 9.216-7.168 19.456-4.608 48.64l3.584 36.864-48.128 31.232c-26.112 16.896-50.176 30.72-53.248 30.72-2.56 0-19.968-10.752-38.4-23.04z m-99.84-62.464c14.848-9.728 28.672-14.336 49.664-15.872 25.6-2.048 32.768 0 57.344 13.824 32.768 18.432 39.424 18.944 59.904 7.168 12.8-7.68 14.848-11.264 12.288-23.04-9.728-43.52 24.576-105.472 64.512-117.76 23.552-6.656 35.328-20.48 35.328-41.472 0-22.528-8.704-33.28-30.208-39.424-25.6-6.656-59.392-43.008-67.072-71.68-3.072-11.776-5.12-30.72-4.096-42.496 1.536-20.48 0.512-22.016-17.408-30.72l-19.456-9.728-27.648 15.872c-37.888 22.016-73.216 22.016-105.472 0.512-27.136-17.92-31.744-18.432-53.76-5.12-16.384 10.24-16.896 11.776-17.408 43.52-0.512 52.736-22.528 86.528-66.048 100.352-23.552 7.168-31.744 17.408-31.744 37.888 0 22.016 8.192 31.232 40.96 47.616 41.472 20.992 66.56 65.536 59.392 107.52-2.048 13.824-0.512 19.456 8.704 27.136 15.872 12.8 28.672 11.776 52.224-4.096z" p-id="7291"></path><path d="M728.064 860.16c-26.112-6.144-54.784-28.16-65.536-49.664-5.632-12.288-9.216-30.72-9.728-50.176 0-36.352 10.24-57.344 39.936-81.408 18.432-14.848 22.528-15.872 61.44-15.872 35.84 0 44.544 2.048 60.416 12.8 27.648 18.432 41.984 42.496 44.544 74.752 6.144 76.8-54.272 128-131.072 109.568z m57.856-69.12c25.088-24.576 12.288-64-23.04-71.68-28.672-6.144-56.32 23.552-48.64 52.224 8.192 32.256 48.128 43.52 71.68 19.456zM13.312 1003.008l-13.312-10.24v-79.36c0-99.328 8.192-141.312 40.448-209.408 43.008-90.624 107.52-156.672 202.24-207.872l43.52-23.04-27.136-31.232c-49.664-56.832-68.096-99.84-73.216-167.936C175.616 122.368 292.352 0 448.512 0c40.448 0 53.248 2.048 86.528 14.848 57.856 22.528 81.92 38.4 111.616 74.752 54.272 65.536 77.824 138.752 65.536 203.264-9.728 48.64-41.472 111.616-73.216 145.408-51.712 55.296-90.112 71.168-198.656 81.408-89.6 8.704-100.864 11.776-166.4 45.056-41.984 21.504-58.88 33.792-94.72 70.144-65.536 65.536-96.256 135.68-104.96 241.152-6.144 73.728-29.696 66.048 206.848 66.048 155.136 0 205.312 1.536 211.456 6.656 8.704 7.168 34.816 51.2 34.816 59.392 0 4.096-75.776 5.632-250.368 5.632-245.248 0-250.368 0-263.68-10.752zM525.824 427.52c39.424-17.92 78.848-57.344 96.768-96.768 12.288-26.112 14.336-37.888 14.336-73.216 0-37.888-2.048-45.568-19.456-80.896-31.232-63.488-84.48-98.304-157.184-103.424-81.92-6.144-155.136 38.4-190.464 114.688-8.704 19.456-11.264 33.792-11.264 70.656 0 40.448 2.048 49.664 14.848 76.288 15.872 32.256 41.472 61.44 73.216 81.92 47.616 31.232 124.416 35.84 179.2 10.752z" p-id="7292"></path></svg>